<mxfile host="app.diagrams.net" modified="2021-11-27T16:10:03.892Z" agent="5.0 (Windows NT 10.0; Win64; x64) AppleWebKit/537.36 (KHTML, like Gecko) Chrome/96.0.4664.45 Safari/537.36" etag="1T127pGhrmkVTvYw2eIo" version="15.8.6" type="github">
  <diagram id="BDGeRAOKJIfFWt-nfXFW" name="Page-1">
    <mxGraphModel dx="1024" dy="736" grid="1" gridSize="10" guides="1" tooltips="1" connect="1" arrows="1" fold="1" page="1" pageScale="1" pageWidth="850" pageHeight="1100" math="0" shadow="0">
      <root>
        <mxCell id="0" />
        <mxCell id="1" parent="0" />
        <mxCell id="a57yiKhg0gn8jXK0cFxK-14" style="edgeStyle=orthogonalEdgeStyle;rounded=0;orthogonalLoop=1;jettySize=auto;html=1;exitX=1;exitY=0.5;exitDx=0;exitDy=0;entryX=0;entryY=0.5;entryDx=0;entryDy=0;" edge="1" parent="1" source="a57yiKhg0gn8jXK0cFxK-3" target="a57yiKhg0gn8jXK0cFxK-10">
          <mxGeometry relative="1" as="geometry">
            <Array as="points">
              <mxPoint x="470" y="310" />
              <mxPoint x="470" y="210" />
            </Array>
          </mxGeometry>
        </mxCell>
        <mxCell id="a57yiKhg0gn8jXK0cFxK-3" value="Buffer&lt;br&gt;(Max 32000 samples)" style="rounded=1;whiteSpace=wrap;html=1;" vertex="1" parent="1">
          <mxGeometry x="320" y="280" width="120" height="60" as="geometry" />
        </mxCell>
        <mxCell id="a57yiKhg0gn8jXK0cFxK-6" value="" style="endArrow=classic;html=1;rounded=0;entryX=0;entryY=0.5;entryDx=0;entryDy=0;" edge="1" parent="1" target="a57yiKhg0gn8jXK0cFxK-3">
          <mxGeometry width="50" height="50" relative="1" as="geometry">
            <mxPoint x="80" y="310" as="sourcePoint" />
            <mxPoint x="470" y="420" as="targetPoint" />
          </mxGeometry>
        </mxCell>
        <mxCell id="a57yiKhg0gn8jXK0cFxK-7" value="Last 512 samples of guitar signal" style="text;html=1;strokeColor=none;fillColor=none;align=center;verticalAlign=middle;whiteSpace=wrap;rounded=0;" vertex="1" parent="1">
          <mxGeometry x="110" y="240" width="60" height="30" as="geometry" />
        </mxCell>
        <mxCell id="a57yiKhg0gn8jXK0cFxK-15" style="edgeStyle=orthogonalEdgeStyle;rounded=0;orthogonalLoop=1;jettySize=auto;html=1;exitX=0.25;exitY=1;exitDx=0;exitDy=0;entryX=0.5;entryY=0;entryDx=0;entryDy=0;" edge="1" parent="1" source="a57yiKhg0gn8jXK0cFxK-10" target="a57yiKhg0gn8jXK0cFxK-11">
          <mxGeometry relative="1" as="geometry" />
        </mxCell>
        <mxCell id="a57yiKhg0gn8jXK0cFxK-16" style="edgeStyle=orthogonalEdgeStyle;rounded=0;orthogonalLoop=1;jettySize=auto;html=1;exitX=0.5;exitY=1;exitDx=0;exitDy=0;entryX=0.5;entryY=0;entryDx=0;entryDy=0;" edge="1" parent="1" source="a57yiKhg0gn8jXK0cFxK-10" target="a57yiKhg0gn8jXK0cFxK-12">
          <mxGeometry relative="1" as="geometry" />
        </mxCell>
        <mxCell id="a57yiKhg0gn8jXK0cFxK-17" style="edgeStyle=orthogonalEdgeStyle;rounded=0;orthogonalLoop=1;jettySize=auto;html=1;exitX=0.75;exitY=1;exitDx=0;exitDy=0;entryX=0.5;entryY=0;entryDx=0;entryDy=0;" edge="1" parent="1" source="a57yiKhg0gn8jXK0cFxK-10" target="a57yiKhg0gn8jXK0cFxK-13">
          <mxGeometry relative="1" as="geometry" />
        </mxCell>
        <mxCell id="a57yiKhg0gn8jXK0cFxK-10" value="Onset Detection" style="rounded=1;whiteSpace=wrap;html=1;" vertex="1" parent="1">
          <mxGeometry x="540" y="180" width="120" height="60" as="geometry" />
        </mxCell>
        <mxCell id="a57yiKhg0gn8jXK0cFxK-19" style="edgeStyle=orthogonalEdgeStyle;rounded=0;orthogonalLoop=1;jettySize=auto;html=1;exitX=0.5;exitY=1;exitDx=0;exitDy=0;entryX=0.25;entryY=0;entryDx=0;entryDy=0;" edge="1" parent="1" source="a57yiKhg0gn8jXK0cFxK-11" target="a57yiKhg0gn8jXK0cFxK-18">
          <mxGeometry relative="1" as="geometry" />
        </mxCell>
        <mxCell id="a57yiKhg0gn8jXK0cFxK-11" value="Note" style="rounded=1;whiteSpace=wrap;html=1;" vertex="1" parent="1">
          <mxGeometry x="480" y="295" width="70" height="30" as="geometry" />
        </mxCell>
        <mxCell id="a57yiKhg0gn8jXK0cFxK-20" style="edgeStyle=orthogonalEdgeStyle;rounded=0;orthogonalLoop=1;jettySize=auto;html=1;exitX=0.5;exitY=1;exitDx=0;exitDy=0;entryX=0.5;entryY=0;entryDx=0;entryDy=0;" edge="1" parent="1" source="a57yiKhg0gn8jXK0cFxK-12" target="a57yiKhg0gn8jXK0cFxK-18">
          <mxGeometry relative="1" as="geometry" />
        </mxCell>
        <mxCell id="a57yiKhg0gn8jXK0cFxK-12" value="Note" style="rounded=1;whiteSpace=wrap;html=1;" vertex="1" parent="1">
          <mxGeometry x="570" y="295" width="70" height="30" as="geometry" />
        </mxCell>
        <mxCell id="a57yiKhg0gn8jXK0cFxK-21" style="edgeStyle=orthogonalEdgeStyle;rounded=0;orthogonalLoop=1;jettySize=auto;html=1;exitX=0.5;exitY=1;exitDx=0;exitDy=0;entryX=0.75;entryY=0;entryDx=0;entryDy=0;" edge="1" parent="1" source="a57yiKhg0gn8jXK0cFxK-13" target="a57yiKhg0gn8jXK0cFxK-18">
          <mxGeometry relative="1" as="geometry" />
        </mxCell>
        <mxCell id="a57yiKhg0gn8jXK0cFxK-13" value="Note" style="rounded=1;whiteSpace=wrap;html=1;" vertex="1" parent="1">
          <mxGeometry x="650" y="295" width="70" height="30" as="geometry" />
        </mxCell>
        <mxCell id="a57yiKhg0gn8jXK0cFxK-23" style="edgeStyle=orthogonalEdgeStyle;rounded=0;orthogonalLoop=1;jettySize=auto;html=1;exitX=0.25;exitY=1;exitDx=0;exitDy=0;entryX=0.25;entryY=0;entryDx=0;entryDy=0;" edge="1" parent="1" source="a57yiKhg0gn8jXK0cFxK-18" target="a57yiKhg0gn8jXK0cFxK-22">
          <mxGeometry relative="1" as="geometry" />
        </mxCell>
        <mxCell id="a57yiKhg0gn8jXK0cFxK-27" style="edgeStyle=orthogonalEdgeStyle;rounded=0;orthogonalLoop=1;jettySize=auto;html=1;exitX=0.75;exitY=1;exitDx=0;exitDy=0;entryX=0.5;entryY=0;entryDx=0;entryDy=0;" edge="1" parent="1" source="a57yiKhg0gn8jXK0cFxK-18" target="a57yiKhg0gn8jXK0cFxK-26">
          <mxGeometry relative="1" as="geometry" />
        </mxCell>
        <mxCell id="a57yiKhg0gn8jXK0cFxK-18" value="Loud enough?&lt;br&gt;Long enough?" style="rounded=1;whiteSpace=wrap;html=1;" vertex="1" parent="1">
          <mxGeometry x="530" y="370" width="120" height="60" as="geometry" />
        </mxCell>
        <mxCell id="a57yiKhg0gn8jXK0cFxK-22" value="Notes to be identified" style="rounded=1;whiteSpace=wrap;html=1;" vertex="1" parent="1">
          <mxGeometry x="480" y="480" width="110" height="40" as="geometry" />
        </mxCell>
        <mxCell id="a57yiKhg0gn8jXK0cFxK-24" value="YES" style="text;html=1;strokeColor=none;fillColor=none;align=center;verticalAlign=middle;whiteSpace=wrap;rounded=0;" vertex="1" parent="1">
          <mxGeometry x="470" y="430" width="60" height="30" as="geometry" />
        </mxCell>
        <mxCell id="a57yiKhg0gn8jXK0cFxK-26" value="Combine with next note, or place back in buffer" style="rounded=1;whiteSpace=wrap;html=1;" vertex="1" parent="1">
          <mxGeometry x="650" y="480" width="110" height="50" as="geometry" />
        </mxCell>
        <mxCell id="a57yiKhg0gn8jXK0cFxK-28" value="NO" style="text;html=1;strokeColor=none;fillColor=none;align=center;verticalAlign=middle;whiteSpace=wrap;rounded=0;" vertex="1" parent="1">
          <mxGeometry x="670" y="420" width="60" height="30" as="geometry" />
        </mxCell>
      </root>
    </mxGraphModel>
  </diagram>
</mxfile>
